ModelForces
version=1
nRows=4
nColumns=206
inDegrees=no

This file contains the forces exerted on a model during a simulation.

A force is a generalized force, meaning that it can be either a force (N) or a torque (Nm).

Units are S.I. units (second, meters, Newtons, ...)
Angles are in degrees.

endheader
time	glut_med1_r	glut_med2_r	glut_med3_r	glut_min1_r	glut_min2_r	glut_min3_r	semimem_r	semiten_r	bifemlh_r	bifemsh_r	sar_r	add_long_r	add_brev_r	add_mag1_r	add_mag2_r	add_mag3_r	tfl_r	pect_r	grac_r	glut_max1_r	glut_max2_r	glut_max3_r	iliacus_r	psoas_r	quad_fem_r	gem_r	peri_r	rect_fem_r	vas_med_r	vas_int_r	vas_lat_r	med_gas_r	lat_gas_r	soleus_r	tib_post_r	flex_dig_r	flex_hal_r	tib_ant_r	per_brev_r	per_long_r	per_tert_r	ext_dig_r	ext_hal_r	glut_med1_l	glut_med2_l	glut_med3_l	glut_min1_l	glut_min2_l	glut_min3_l	semimem_l	semiten_l	bifemlh_l	bifemsh_l	sar_l	add_long_l	add_brev_l	add_mag1_l	add_mag2_l	add_mag3_l	tfl_l	pect_l	grac_l	glut_max1_l	glut_max2_l	glut_max3_l	iliacus_l	psoas_l	quad_fem_l	gem_l	peri_l	rect_fem_l	vas_med_l	vas_int_l	vas_lat_l	med_gas_l	lat_gas_l	soleus_l	tib_post_l	flex_dig_l	flex_hal_l	tib_ant_l	per_brev_l	per_long_l	per_tert_l	ext_dig_l	ext_hal_l	ercspn_r	ercspn_l	intobl_r	intobl_l	extobl_r	extobl_l	femur_lat_meniscii_l.femur_lat_l.force.X	femur_lat_meniscii_l.femur_lat_l.force.Y	femur_lat_meniscii_l.femur_lat_l.force.Z	femur_lat_meniscii_l.femur_lat_l.torque.X	femur_lat_meniscii_l.femur_lat_l.torque.Y	femur_lat_meniscii_l.femur_lat_l.torque.Z	femur_lat_meniscii_l.meniscus_lat_l.force.X	femur_lat_meniscii_l.meniscus_lat_l.force.Y	femur_lat_meniscii_l.meniscus_lat_l.force.Z	femur_lat_meniscii_l.meniscus_lat_l.torque.X	femur_lat_meniscii_l.meniscus_lat_l.torque.Y	femur_lat_meniscii_l.meniscus_lat_l.torque.Z	femur_med_meniscii_l.femur_med_l.force.X	femur_med_meniscii_l.femur_med_l.force.Y	femur_med_meniscii_l.femur_med_l.force.Z	femur_med_meniscii_l.femur_med_l.torque.X	femur_med_meniscii_l.femur_med_l.torque.Y	femur_med_meniscii_l.femur_med_l.torque.Z	femur_med_meniscii_l.meniscus_med_l.force.X	femur_med_meniscii_l.meniscus_med_l.force.Y	femur_med_meniscii_l.meniscus_med_l.force.Z	femur_med_meniscii_l.meniscus_med_l.torque.X	femur_med_meniscii_l.meniscus_med_l.torque.Y	femur_med_meniscii_l.meniscus_med_l.torque.Z	femur_lat_meniscii_r.femur_lat_r.force.X	femur_lat_meniscii_r.femur_lat_r.force.Y	femur_lat_meniscii_r.femur_lat_r.force.Z	femur_lat_meniscii_r.femur_lat_r.torque.X	femur_lat_meniscii_r.femur_lat_r.torque.Y	femur_lat_meniscii_r.femur_lat_r.torque.Z	femur_lat_meniscii_r.meniscus_lat_r.force.X	femur_lat_meniscii_r.meniscus_lat_r.force.Y	femur_lat_meniscii_r.meniscus_lat_r.force.Z	femur_lat_meniscii_r.meniscus_lat_r.torque.X	femur_lat_meniscii_r.meniscus_lat_r.torque.Y	femur_lat_meniscii_r.meniscus_lat_r.torque.Z	femur_med_meniscii_r.femur_med_r.force.X	femur_med_meniscii_r.femur_med_r.force.Y	femur_med_meniscii_r.femur_med_r.force.Z	femur_med_meniscii_r.femur_med_r.torque.X	femur_med_meniscii_r.femur_med_r.torque.Y	femur_med_meniscii_r.femur_med_r.torque.Z	femur_med_meniscii_r.meniscus_med_r.force.X	femur_med_meniscii_r.meniscus_med_r.force.Y	femur_med_meniscii_r.meniscus_med_r.force.Z	femur_med_meniscii_r.meniscus_med_r.torque.X	femur_med_meniscii_r.meniscus_med_r.torque.Y	femur_med_meniscii_r.meniscus_med_r.torque.Z	femur_med_tibia_l.tibia_upper_l.force.X	femur_med_tibia_l.tibia_upper_l.force.Y	femur_med_tibia_l.tibia_upper_l.force.Z	femur_med_tibia_l.tibia_upper_l.torque.X	femur_med_tibia_l.tibia_upper_l.torque.Y	femur_med_tibia_l.tibia_upper_l.torque.Z	femur_med_tibia_l.femur_med_l.force.X	femur_med_tibia_l.femur_med_l.force.Y	femur_med_tibia_l.femur_med_l.force.Z	femur_med_tibia_l.femur_med_l.torque.X	femur_med_tibia_l.femur_med_l.torque.Y	femur_med_tibia_l.femur_med_l.torque.Z	femur_lat_tibia_l.tibia_upper_l.force.X	femur_lat_tibia_l.tibia_upper_l.force.Y	femur_lat_tibia_l.tibia_upper_l.force.Z	femur_lat_tibia_l.tibia_upper_l.torque.X	femur_lat_tibia_l.tibia_upper_l.torque.Y	femur_lat_tibia_l.tibia_upper_l.torque.Z	femur_lat_tibia_l.femur_lat_l.force.X	femur_lat_tibia_l.femur_lat_l.force.Y	femur_lat_tibia_l.femur_lat_l.force.Z	femur_lat_tibia_l.femur_lat_l.torque.X	femur_lat_tibia_l.femur_lat_l.torque.Y	femur_lat_tibia_l.femur_lat_l.torque.Z	femur_med_tibia_r.tibia_upper_r.force.X	femur_med_tibia_r.tibia_upper_r.force.Y	femur_med_tibia_r.tibia_upper_r.force.Z	femur_med_tibia_r.tibia_upper_r.torque.X	femur_med_tibia_r.tibia_upper_r.torque.Y	femur_med_tibia_r.tibia_upper_r.torque.Z	femur_med_tibia_r.femur_med_r.force.X	femur_med_tibia_r.femur_med_r.force.Y	femur_med_tibia_r.femur_med_r.force.Z	femur_med_tibia_r.femur_med_r.torque.X	femur_med_tibia_r.femur_med_r.torque.Y	femur_med_tibia_r.femur_med_r.torque.Z	femur_lat_tibia_r.tibia_upper_r.force.X	femur_lat_tibia_r.tibia_upper_r.force.Y	femur_lat_tibia_r.tibia_upper_r.force.Z	femur_lat_tibia_r.tibia_upper_r.torque.X	femur_lat_tibia_r.tibia_upper_r.torque.Y	femur_lat_tibia_r.tibia_upper_r.torque.Z	femur_lat_tibia_r.femur_lat_r.force.X	femur_lat_tibia_r.femur_lat_r.force.Y	femur_lat_tibia_r.femur_lat_r.force.Z	femur_lat_tibia_r.femur_lat_r.torque.X	femur_lat_tibia_r.femur_lat_r.torque.Y	femur_lat_tibia_r.femur_lat_r.torque.Z	aACL_R	pACL_R	aPCL_R	pPCL_R	aMCL_R	mMCL_R	pMCL_R	aLCL_R	mLCL_R	pLCL_R	aPCL_L	pPCL_L	aMCL_L	aLCL_L	ground_prescribedForce_-60_fx	ground_prescribedForce_-60_fy	ground_prescribedForce_-60_fz
      0.73659382	      7.54791888	      5.66573123	      6.06469223	      2.65892511	      3.17893492	      3.19272835	      1.31461654	      3.88567660	      4.85385125	      6.18556815	      1.54818276	      5.61325902	      4.14104485	      2.91891254	      2.45371295	      3.98743031	      4.20135083	      2.23870484	      1.52499546	      3.65605989	      5.55598201	      4.14740009	     22.64756454	     12.96681238	      3.62665951	      2.85431038	      4.09011159	     64.42207652	     14.89318169	     15.75969399	     21.43953556	      0.00000000	      0.00000000	     11.67844996	     14.50265144	      2.79793276	      3.38212002	     12.62443322	      3.78553330	      7.92006383	     10.22237913	      8.29614304	      1.59045403	      7.54791888	      5.66573123	      6.06469223	      2.65892511	      3.17893492	      3.19272835	      8.74520485	      4.08321746	      7.68286318	      7.21599141	      1.51973712	      5.61325902	      4.14104485	      2.91891254	      2.45371295	      3.98743031	      4.09700469	      2.23870484	      1.55869590	      3.65605989	      5.55598201	      4.14740009	     22.64756454	     12.96681238	      3.62665951	      2.85431038	      4.09011159	     10.66718069	      6.59265712	      7.56230444	      8.13152077	     13.95383325	      6.47908689	     31.08754085	     42.35967678	      2.58957457	      2.84294155	      8.45180621	      4.33405410	     12.44682010	      2.00587818	      5.35948688	      1.70132597	     25.00648964	     25.00648964	      9.00011141	      9.00011141	     26.80470917	     26.80470917	      2.76307435	     50.99597937	     -9.56042239	      5.21997485	     -0.02578839	      1.48581788	     -2.76307435	    -50.99597937	      9.56042239	     -1.74637766	      0.02558040	     -0.48301696	     -3.31599387	     20.97615968	     -3.40468921	      0.94473225	     -0.02138609	     -1.00501789	      3.31599387	    -20.97615968	      3.40468921	      0.28075727	      0.00368718	     -0.29758878	    198.42633164	    118.61467308	     56.16487884	    -25.93580089	      4.86841004	     81.29116042	   -198.42633164	   -118.61467308	    -56.16487884	      4.71723651	     -7.58116159	     -0.59849049	    547.88336006	     80.51927949	    -42.94738883	     19.06652825	    -10.96753294	    222.55410752	   -547.88336006	    -80.51927949	     42.94738883	     -1.60561571	      7.99237414	     -5.38174756	      0.00000000	      0.00000000	      0.00000000	      0.00000000	      0.00000000	      0.00000000	      0.00000000	      0.00000000	      0.00000000	      0.00000000	      0.00000000	      0.00000000	      0.00000000	      0.00000000	      0.00000000	      0.00000000	      0.00000000	      0.00000000	      0.00000000	      0.00000000	      0.00000000	      0.00000000	      0.00000000	      0.00000000	      0.00000000	      0.00000000	      0.00000000	      0.00000000	      0.00000000	      0.00000000	      0.00000000	      0.00000000	      0.00000000	      0.00000000	      0.00000000	      0.00000000	      0.00000000	      0.00000000	      0.00000000	      0.00000000	      0.00000000	      0.00000000	      0.00000000	      0.00000000	      0.00000000	      0.00000000	      0.00000000	      0.00000000	      1.50971423	      0.00000000	    472.34434356	    192.09540051	     30.05302299	     19.85844840	      7.51554873	      0.00000000	      0.00000000	      0.00000000	      0.00000000	      0.00000000	      0.00000001	      0.00000000	     55.00000000	    -95.26270000	      0.00000000
      0.73807114	      7.54787370	      5.66570009	      6.06465848	      2.65891112	      3.17891978	      3.19270928	      1.31390679	      3.88211670	      4.85186790	      6.17569124	      1.54606649	      5.61322781	      4.14102325	      2.91889661	      2.45369925	      3.98740563	      4.20053839	      2.23869298	      1.52311045	      3.65603982	      5.55595141	      4.14737683	     22.64750809	     12.96674893	      3.62664000	      2.85430126	      4.09007489	     64.42941629	     14.86639301	     15.73274862	     21.41027509	      0.00000000	      0.00000000	     11.67672992	     14.50795968	      2.79173317	      3.37821298	     12.63334299	      3.78613649	      7.92033989	     10.22392922	      8.31960459	      1.59767034	      7.54787370	      5.66570009	      6.06465848	      2.65891112	      3.17891978	      3.19270928	      8.74513894	      4.08319325	      7.68280839	      7.21595258	      1.51972916	      5.61322781	      4.14102325	      2.91889661	      2.45369925	      3.98740563	      4.09698944	      2.23869298	      1.55868760	      3.65603982	      5.55595141	      4.14737683	     22.64750809	     12.96674893	      3.62664000	      2.85430126	      4.09007489	     10.66710612	      6.59262007	      7.56226111	      8.13147443	     13.95366002	      6.47900630	     31.08726278	     42.35956837	      2.58839075	      2.84239033	      8.45175012	      4.33402041	     12.44673679	      2.00586833	      5.36004747	      1.70147931	     25.00635775	     25.00635775	      9.00005971	      9.00005971	     26.80466273	     26.80466273	      2.76307435	     50.99597937	     -9.56042239	      5.21997485	     -0.02578839	      1.48581788	     -2.76307435	    -50.99597937	      9.56042239	     -1.74637766	      0.02558040	     -0.48301696	     -3.31599387	     20.97615968	     -3.40468921	      0.94473225	     -0.02138609	     -1.00501789	      3.31599387	    -20.97615968	      3.40468921	      0.28075727	      0.00368718	     -0.29758878	    198.74163351	    118.42056539	     55.39691450	    -25.61256146	      4.86728217	     81.42523381	   -198.74163351	   -118.42056539	    -55.39691450	      4.69446032	     -7.56554363	     -0.61157696	    547.55972668	     80.05863422	    -44.70669588	     19.77647367	    -10.98276666	    222.43075657	   -547.55972668	    -80.05863422	     44.70669588	     -1.62686636	      8.04833538	     -5.39240767	      0.00000000	      0.00000000	      0.00000000	      0.00000000	      0.00000000	      0.00000000	      0.00000000	      0.00000000	      0.00000000	      0.00000000	      0.00000000	      0.00000000	      0.00000000	      0.00000000	      0.00000000	      0.00000000	      0.00000000	      0.00000000	      0.00000000	      0.00000000	      0.00000000	      0.00000000	      0.00000000	      0.00000000	      0.00000000	      0.00000000	      0.00000000	      0.00000000	      0.00000000	      0.00000000	      0.00000000	      0.00000000	      0.00000000	      0.00000000	      0.00000000	      0.00000000	      0.00000000	      0.00000000	      0.00000000	      0.00000000	      0.00000000	      0.00000000	      0.00000000	      0.00000000	      0.00000000	      0.00000000	      0.00000000	      0.00000000	      1.62515398	      0.00000000	    472.21511478	    191.97877020	     30.14128948	     19.94008068	      7.56753401	      0.00000000	      0.00000000	      0.00000000	      0.00000000	      0.00000000	      0.00000001	      0.00000000	     55.00000000	    -95.26270000	      0.00000000
      0.73994771	      7.54781753	      5.66566138	      6.06461654	      2.65889372	      3.17890097	      3.19268556	      1.31451640	      3.87755053	      4.84769769	      6.16549834	      1.54518944	      5.61318902	      4.14099641	      2.91887682	      2.45368221	      3.98737495	      4.20006536	      2.23867824	      1.52125867	      3.65601486	      5.55591337	      4.14734792	     22.64743792	     12.96667004	      3.62661576	      2.85428992	      4.09002927	     64.43938481	     14.83592200	     15.70169165	     21.37563436	      0.00000000	      0.00000000	     11.67870054	     14.51328911	      2.78414023	      3.37227532	     12.64205270	      3.78836971	      7.92241431	     10.22722929	      8.34694066	      1.60668379	      7.54781753	      5.66566138	      6.06461654	      2.65889372	      3.17890097	      3.19268556	      8.74505700	      4.08316315	      7.68274027	      7.21590432	      1.51971926	      5.61318902	      4.14099641	      2.91887682	      2.45368221	      3.98737495	      4.09697047	      2.23867824	      1.55867727	      3.65601486	      5.55591337	      4.14734792	     22.64743792	     12.96667004	      3.62661576	      2.85428992	      4.09002927	     10.66701343	      6.59257400	      7.56220725	      8.13141681	     13.95344463	      6.47890609	     31.08691709	     42.35943362	      2.58688269	      2.84168965	      8.45168040	      4.33397853	     12.44663321	      2.00585610	      5.36076220	      1.70167463	     25.00619378	     25.00619378	      8.99999544	      8.99999544	     26.80460500	     26.80460500	      2.76307435	     50.99597937	     -9.56042239	      5.21997485	     -0.02578839	      1.48581788	     -2.76307435	    -50.99597937	      9.56042239	     -1.74637766	      0.02558040	     -0.48301696	     -3.31599387	     20.97615968	     -3.40468921	      0.94473225	     -0.02138609	     -1.00501789	      3.31599387	    -20.97615968	      3.40468921	      0.28075727	      0.00368718	     -0.29758878	    198.84174467	    118.42099697	     55.85438512	    -25.80272896	      4.87351373	     81.46853761	   -198.84174467	   -118.42099697	    -55.85438512	      4.70493584	     -7.58398555	     -0.61367262	    547.07283159	     80.21671465	    -42.86051749	     19.02785556	    -10.95361406	    222.23404221	   -547.07283159	    -80.21671465	     42.86051749	     -1.60200407	      7.97810667	     -5.37887967	      0.00000000	      0.00000000	      0.00000000	      0.00000000	      0.00000000	      0.00000000	      0.00000000	      0.00000000	      0.00000000	      0.00000000	      0.00000000	      0.00000000	      0.00000000	      0.00000000	      0.00000000	      0.00000000	      0.00000000	      0.00000000	      0.00000000	      0.00000000	      0.00000000	      0.00000000	      0.00000000	      0.00000000	      0.00000000	      0.00000000	      0.00000000	      0.00000000	      0.00000000	      0.00000000	      0.00000000	      0.00000000	      0.00000000	      0.00000000	      0.00000000	      0.00000000	      0.00000000	      0.00000000	      0.00000000	      0.00000000	      0.00000000	      0.00000000	      0.00000000	      0.00000000	      0.00000000	      0.00000000	      0.00000000	      0.00000000	      1.46503052	      0.00000000	    472.07025338	    191.89855675	     30.02847465	     19.83315824	      7.44673917	      0.00000000	      0.00000000	      0.00000000	      0.00000000	      0.00000000	      0.00000001	      0.00000000	     55.00000000	    -95.26270000	      0.00000000
      0.74182428	      7.54776270	      5.66562360	      6.06457559	      2.65887674	      3.17888261	      3.19266242	      1.31182465	      3.87062145	      4.84136871	      6.15048639	      1.54147624	      5.61315115	      4.14097020	      2.91885750	      2.45366559	      3.98734501	      4.19846030	      2.23866386	      1.51818621	      3.65599050	      5.55587624	      4.14731969	     22.64736942	     12.96659304	      3.62659210	      2.85427885	      4.08998473	     64.43541980	     14.78295433	     15.64844055	     21.31269203	      0.00000000	      0.00000000	     11.68112487	     14.52120957	      2.77756047	      3.36588650	     12.65248312	      3.78906442	      7.92324061	     10.22708934	      8.37091681	      1.61588442	      7.54776270	      5.66562360	      6.06457559	      2.65887674	      3.17888261	      3.19266242	      8.74497702	      4.08313378	      7.68267377	      7.21585721	      1.51970960	      5.61315115	      4.14097020	      2.91885750	      2.45366559	      3.98734501	      4.09695196	      2.23866386	      1.55866719	      3.65599050	      5.55587624	      4.14731969	     22.64736942	     12.96659304	      3.62659210	      2.85427885	      4.08998473	     10.66692295	      6.59252904	      7.56215468	      8.13136057	     13.95323434	      6.47880826	     31.08657966	     42.35930207	      2.58536974	      2.84098840	      8.45161234	      4.33393764	     12.44653210	      2.00584415	      5.36147985	      1.70187053	     25.00603373	     25.00603373	      8.99993271	      8.99993271	     26.80454865	     26.80454865	      2.76307435	     50.99597937	     -9.56042239	      5.21997485	     -0.02578839	      1.48581788	     -2.76307435	    -50.99597937	      9.56042239	     -1.74637766	      0.02558040	     -0.48301696	     -3.31599387	     20.97615968	     -3.40468921	      0.94473225	     -0.02138609	     -1.00501789	      3.31599387	    -20.97615968	      3.40468921	      0.28075727	      0.00368718	     -0.29758878	    199.26967343	    118.26970906	     54.35520277	    -25.17658132	      4.86754604	     81.64910294	   -199.26967343	   -118.26970906	    -54.35520277	      4.66695321	     -7.54773311	     -0.62775415	    546.60120685	     79.54734298	    -46.64921674	     20.56385418	    -10.98953168	    222.05284973	   -546.60120685	    -79.54734298	     46.64921674	     -1.65306527	      8.10199070	     -5.39403877	      0.00000000	      0.00000000	      0.00000000	      0.00000000	      0.00000000	      0.00000000	      0.00000000	      0.00000000	      0.00000000	      0.00000000	      0.00000000	      0.00000000	      0.00000000	      0.00000000	      0.00000000	      0.00000000	      0.00000000	      0.00000000	      0.00000000	      0.00000000	      0.00000000	      0.00000000	      0.00000000	      0.00000000	      0.00000000	      0.00000000	      0.00000000	      0.00000000	      0.00000000	      0.00000000	      0.00000000	      0.00000000	      0.00000000	      0.00000000	      0.00000000	      0.00000000	      0.00000000	      0.00000000	      0.00000000	      0.00000000	      0.00000000	      0.00000000	      0.00000000	      0.00000000	      0.00000000	      0.00000000	      0.00000000	      0.00000000	      1.69528388	      0.00000000	    471.92003074	    191.77063528	     30.20136047	     19.99933658	      7.57400191	      0.00000000	      0.00000000	      0.00000000	      0.00000000	      0.00000000	      0.00000001	      0.00000000	     55.00000000	    -95.26270000	      0.00000000
